<svg xmlns="http://www.w3.org/2000/svg" xmlns:xlink="http://www.w3.org/1999/xlink" width="500" zoomAndPan="magnify" viewBox="0 0 375 374.999991" height="500" preserveAspectRatio="xMidYMid meet" version="1.0"><defs><g/><clipPath id="106d6894c7"><path d="M 219 37.5 L 342 37.5 L 342 301.5 L 219 301.5 Z M 219 37.5 " clip-rule="nonzero"/></clipPath><clipPath id="c37a8e88ce"><path d="M 225 185 L 310 185 L 310 301.5 L 225 301.5 Z M 225 185 " clip-rule="nonzero"/></clipPath><clipPath id="8e1716dbf7"><path d="M 33 37.5 L 156 37.5 L 156 301.5 L 33 301.5 Z M 33 37.5 " clip-rule="nonzero"/></clipPath><clipPath id="52cb5bc3b5"><path d="M 66 185 L 151 185 L 151 301.5 L 66 301.5 Z M 66 185 " clip-rule="nonzero"/></clipPath></defs><g clip-path="url(#106d6894c7)"><path fill="#80c729" d="M 335.539062 37.550781 C 335.539062 37.550781 324.976562 71.628906 278.03125 97.480469 C 220.363281 129.207031 212.480469 152.039062 225.222656 226.074219 C 226.730469 239 242.488281 280.632812 309.21875 301.449219 C 309.21875 301.449219 292.117188 274.253906 291.609375 251.257812 C 291.273438 231.277344 293.289062 199.886719 267.46875 185.449219 C 289.097656 178.90625 309.386719 176.382812 304.351562 147.679688 C 320.28125 142.976562 333.859375 124.347656 324.304688 107.894531 C 324.308594 107.890625 354.316406 84.554688 335.539062 37.550781 Z M 335.539062 37.550781 " fill-opacity="1" fill-rule="evenodd"/></g><g clip-path="url(#c37a8e88ce)"><path fill="#309923" d="M 225.222656 226.074219 C 226.730469 239 242.488281 280.632812 309.21875 301.449219 C 309.21875 301.449219 292.117188 274.253906 291.613281 251.257812 C 291.273438 231.277344 293.289062 199.886719 267.46875 185.449219 C 249.699219 190.652344 231.089844 198.707031 225.222656 226.074219 Z M 225.222656 226.074219 " fill-opacity="1" fill-rule="evenodd"/></g><g fill="#0e2359" fill-opacity="1"><g transform="translate(168.42821, 118.499992)"><g><path d="M 8.75 0.28125 C 7.125 0.28125 5.757812 0.03125 4.65625 -0.46875 C 3.550781 -0.976562 2.703125 -1.628906 2.109375 -2.421875 C 1.523438 -3.222656 1.210938 -4.0625 1.171875 -4.9375 C 1.171875 -5.082031 1.234375 -5.21875 1.359375 -5.34375 C 1.484375 -5.46875 1.628906 -5.53125 1.796875 -5.53125 L 3.234375 -5.53125 C 3.453125 -5.53125 3.617188 -5.472656 3.734375 -5.359375 C 3.847656 -5.242188 3.921875 -5.113281 3.953125 -4.96875 C 4.066406 -4.519531 4.300781 -4.070312 4.65625 -3.625 C 5.007812 -3.1875 5.519531 -2.820312 6.1875 -2.53125 C 6.851562 -2.25 7.707031 -2.109375 8.75 -2.109375 C 10.363281 -2.109375 11.546875 -2.390625 12.296875 -2.953125 C 13.054688 -3.523438 13.4375 -4.289062 13.4375 -5.25 C 13.4375 -5.90625 13.234375 -6.429688 12.828125 -6.828125 C 12.429688 -7.234375 11.820312 -7.59375 11 -7.90625 C 10.175781 -8.226562 9.109375 -8.578125 7.796875 -8.953125 C 6.429688 -9.347656 5.300781 -9.773438 4.40625 -10.234375 C 3.507812 -10.703125 2.835938 -11.28125 2.390625 -11.96875 C 1.953125 -12.664062 1.734375 -13.550781 1.734375 -14.625 C 1.734375 -15.632812 2.003906 -16.535156 2.546875 -17.328125 C 3.097656 -18.117188 3.882812 -18.75 4.90625 -19.21875 C 5.9375 -19.6875 7.171875 -19.921875 8.609375 -19.921875 C 9.773438 -19.921875 10.789062 -19.765625 11.65625 -19.453125 C 12.53125 -19.148438 13.253906 -18.738281 13.828125 -18.21875 C 14.410156 -17.707031 14.851562 -17.15625 15.15625 -16.5625 C 15.457031 -15.976562 15.613281 -15.40625 15.625 -14.84375 C 15.625 -14.71875 15.578125 -14.59375 15.484375 -14.46875 C 15.390625 -14.34375 15.242188 -14.28125 15.046875 -14.28125 L 13.546875 -14.28125 C 13.421875 -14.28125 13.285156 -14.316406 13.140625 -14.390625 C 13.003906 -14.472656 12.898438 -14.613281 12.828125 -14.8125 C 12.710938 -15.582031 12.28125 -16.226562 11.53125 -16.75 C 10.78125 -17.28125 9.804688 -17.546875 8.609375 -17.546875 C 7.398438 -17.546875 6.414062 -17.3125 5.65625 -16.84375 C 4.894531 -16.375 4.515625 -15.644531 4.515625 -14.65625 C 4.515625 -14.007812 4.691406 -13.476562 5.046875 -13.0625 C 5.398438 -12.644531 5.960938 -12.273438 6.734375 -11.953125 C 7.503906 -11.640625 8.503906 -11.300781 9.734375 -10.9375 C 11.234375 -10.53125 12.457031 -10.097656 13.40625 -9.640625 C 14.363281 -9.179688 15.070312 -8.609375 15.53125 -7.921875 C 15.988281 -7.242188 16.21875 -6.367188 16.21875 -5.296875 C 16.21875 -4.117188 15.910156 -3.113281 15.296875 -2.28125 C 14.679688 -1.445312 13.816406 -0.8125 12.703125 -0.375 C 11.585938 0.0625 10.269531 0.28125 8.75 0.28125 Z M 8.75 0.28125 "/></g></g></g><g fill="#0e2359" fill-opacity="1"><g transform="translate(188.404252, 118.499992)"><g><path d="M 8.328125 0 C 8.140625 0 7.984375 -0.0546875 7.859375 -0.171875 C 7.742188 -0.296875 7.6875 -0.453125 7.6875 -0.640625 L 7.6875 -7.265625 L 0.921875 -18.71875 C 0.898438 -18.769531 0.878906 -18.820312 0.859375 -18.875 C 0.847656 -18.9375 0.84375 -19.003906 0.84375 -19.078125 C 0.84375 -19.234375 0.894531 -19.363281 1 -19.46875 C 1.113281 -19.582031 1.25 -19.640625 1.40625 -19.640625 L 2.859375 -19.640625 C 3.023438 -19.640625 3.175781 -19.597656 3.3125 -19.515625 C 3.445312 -19.429688 3.539062 -19.316406 3.59375 -19.171875 L 9.0625 -10.078125 L 14.53125 -19.171875 C 14.625 -19.316406 14.734375 -19.429688 14.859375 -19.515625 C 14.984375 -19.597656 15.128906 -19.640625 15.296875 -19.640625 L 16.71875 -19.640625 C 16.894531 -19.640625 17.035156 -19.582031 17.140625 -19.46875 C 17.253906 -19.363281 17.3125 -19.234375 17.3125 -19.078125 C 17.3125 -19.003906 17.300781 -18.9375 17.28125 -18.875 C 17.269531 -18.820312 17.242188 -18.769531 17.203125 -18.71875 L 10.46875 -7.265625 L 10.46875 -0.640625 C 10.46875 -0.453125 10.40625 -0.296875 10.28125 -0.171875 C 10.164062 -0.0546875 10.003906 0 9.796875 0 Z M 8.328125 0 "/></g></g></g><g fill="#0e2359" fill-opacity="1"><g transform="translate(163.963367, 157.49999)"><g><path d="M 3.09375 0 C 2.90625 0 2.75 -0.0546875 2.625 -0.171875 C 2.5 -0.296875 2.4375 -0.453125 2.4375 -0.640625 L 2.4375 -18.96875 C 2.4375 -19.175781 2.5 -19.335938 2.625 -19.453125 C 2.75 -19.578125 2.90625 -19.640625 3.09375 -19.640625 L 4.484375 -19.640625 C 4.710938 -19.640625 4.878906 -19.582031 4.984375 -19.46875 C 5.097656 -19.363281 5.175781 -19.269531 5.21875 -19.1875 L 11.140625 -7.859375 L 17.125 -19.1875 C 17.15625 -19.269531 17.222656 -19.363281 17.328125 -19.46875 C 17.429688 -19.582031 17.59375 -19.640625 17.8125 -19.640625 L 19.1875 -19.640625 C 19.394531 -19.640625 19.5625 -19.578125 19.6875 -19.453125 C 19.8125 -19.335938 19.875 -19.175781 19.875 -18.96875 L 19.875 -0.640625 C 19.875 -0.453125 19.8125 -0.296875 19.6875 -0.171875 C 19.5625 -0.0546875 19.394531 0 19.1875 0 L 17.8125 0 C 17.632812 0 17.484375 -0.0546875 17.359375 -0.171875 C 17.234375 -0.296875 17.171875 -0.453125 17.171875 -0.640625 L 17.171875 -14.453125 L 12.484375 -5.296875 C 12.410156 -5.109375 12.296875 -4.960938 12.140625 -4.859375 C 11.992188 -4.765625 11.8125 -4.71875 11.59375 -4.71875 L 10.71875 -4.71875 C 10.476562 -4.71875 10.289062 -4.765625 10.15625 -4.859375 C 10.03125 -4.960938 9.921875 -5.109375 9.828125 -5.296875 L 5.109375 -14.453125 L 5.109375 -0.640625 C 5.109375 -0.453125 5.046875 -0.296875 4.921875 -0.171875 C 4.804688 -0.0546875 4.65625 0 4.46875 0 Z M 3.09375 0 "/></g></g></g><g fill="#0e2359" fill-opacity="1"><g transform="translate(188.764809, 157.49999)"><g><path d="M 3.09375 0 C 2.90625 0 2.75 -0.0546875 2.625 -0.171875 C 2.5 -0.296875 2.4375 -0.453125 2.4375 -0.640625 L 2.4375 -18.96875 C 2.4375 -19.175781 2.5 -19.335938 2.625 -19.453125 C 2.75 -19.578125 2.90625 -19.640625 3.09375 -19.640625 L 4.484375 -19.640625 C 4.710938 -19.640625 4.878906 -19.582031 4.984375 -19.46875 C 5.097656 -19.363281 5.175781 -19.269531 5.21875 -19.1875 L 11.140625 -7.859375 L 17.125 -19.1875 C 17.15625 -19.269531 17.222656 -19.363281 17.328125 -19.46875 C 17.429688 -19.582031 17.59375 -19.640625 17.8125 -19.640625 L 19.1875 -19.640625 C 19.394531 -19.640625 19.5625 -19.578125 19.6875 -19.453125 C 19.8125 -19.335938 19.875 -19.175781 19.875 -18.96875 L 19.875 -0.640625 C 19.875 -0.453125 19.8125 -0.296875 19.6875 -0.171875 C 19.5625 -0.0546875 19.394531 0 19.1875 0 L 17.8125 0 C 17.632812 0 17.484375 -0.0546875 17.359375 -0.171875 C 17.234375 -0.296875 17.171875 -0.453125 17.171875 -0.640625 L 17.171875 -14.453125 L 12.484375 -5.296875 C 12.410156 -5.109375 12.296875 -4.960938 12.140625 -4.859375 C 11.992188 -4.765625 11.8125 -4.71875 11.59375 -4.71875 L 10.71875 -4.71875 C 10.476562 -4.71875 10.289062 -4.765625 10.15625 -4.859375 C 10.03125 -4.960938 9.921875 -5.109375 9.828125 -5.296875 L 5.109375 -14.453125 L 5.109375 -0.640625 C 5.109375 -0.453125 5.046875 -0.296875 4.921875 -0.171875 C 4.804688 -0.0546875 4.65625 0 4.46875 0 Z M 3.09375 0 "/></g></g></g><g fill="#0e2359" fill-opacity="1"><g transform="translate(169.611804, 196.499987)"><g><path d="M 3.09375 0 C 2.882812 0 2.722656 -0.0546875 2.609375 -0.171875 C 2.492188 -0.296875 2.4375 -0.453125 2.4375 -0.640625 L 2.4375 -18.96875 C 2.4375 -19.175781 2.492188 -19.335938 2.609375 -19.453125 C 2.722656 -19.578125 2.882812 -19.640625 3.09375 -19.640625 L 14.671875 -19.640625 C 14.878906 -19.640625 15.039062 -19.578125 15.15625 -19.453125 C 15.269531 -19.335938 15.328125 -19.175781 15.328125 -18.96875 L 15.328125 -17.90625 C 15.328125 -17.695312 15.269531 -17.535156 15.15625 -17.421875 C 15.039062 -17.316406 14.878906 -17.265625 14.671875 -17.265625 L 5.140625 -17.265625 L 5.140625 -11.109375 L 14.0625 -11.109375 C 14.269531 -11.109375 14.425781 -11.046875 14.53125 -10.921875 C 14.644531 -10.804688 14.703125 -10.644531 14.703125 -10.4375 L 14.703125 -9.40625 C 14.703125 -9.21875 14.644531 -9.0625 14.53125 -8.9375 C 14.425781 -8.8125 14.269531 -8.75 14.0625 -8.75 L 5.140625 -8.75 L 5.140625 -2.390625 L 14.90625 -2.390625 C 15.101562 -2.390625 15.257812 -2.332031 15.375 -2.21875 C 15.488281 -2.101562 15.546875 -1.941406 15.546875 -1.734375 L 15.546875 -0.640625 C 15.546875 -0.453125 15.488281 -0.296875 15.375 -0.171875 C 15.257812 -0.0546875 15.101562 0 14.90625 0 Z M 3.09375 0 "/></g></g></g><g fill="#0e2359" fill-opacity="1"><g transform="translate(189.138974, 196.499987)"><g><path d="M 7.375 0 C 7.1875 0 7.03125 -0.0546875 6.90625 -0.171875 C 6.789062 -0.296875 6.734375 -0.453125 6.734375 -0.640625 L 6.734375 -17.140625 L 1.34375 -17.140625 C 1.15625 -17.140625 1 -17.203125 0.875 -17.328125 C 0.757812 -17.453125 0.703125 -17.609375 0.703125 -17.796875 L 0.703125 -18.96875 C 0.703125 -19.175781 0.757812 -19.335938 0.875 -19.453125 C 1 -19.578125 1.15625 -19.640625 1.34375 -19.640625 L 14.875 -19.640625 C 15.082031 -19.640625 15.242188 -19.578125 15.359375 -19.453125 C 15.484375 -19.335938 15.546875 -19.175781 15.546875 -18.96875 L 15.546875 -17.796875 C 15.546875 -17.609375 15.484375 -17.453125 15.359375 -17.328125 C 15.242188 -17.203125 15.082031 -17.140625 14.875 -17.140625 L 9.515625 -17.140625 L 9.515625 -0.640625 C 9.515625 -0.453125 9.453125 -0.296875 9.328125 -0.171875 C 9.203125 -0.0546875 9.039062 0 8.84375 0 Z M 7.375 0 "/></g></g></g><g fill="#0e2359" fill-opacity="1"><g transform="translate(167.971179, 235.499985)"><g><path d="M 3.09375 0 C 2.882812 0 2.722656 -0.0546875 2.609375 -0.171875 C 2.492188 -0.296875 2.4375 -0.453125 2.4375 -0.640625 L 2.4375 -18.96875 C 2.4375 -19.175781 2.492188 -19.335938 2.609375 -19.453125 C 2.722656 -19.578125 2.882812 -19.640625 3.09375 -19.640625 L 9.9375 -19.640625 C 12.050781 -19.640625 13.722656 -19.144531 14.953125 -18.15625 C 16.191406 -17.164062 16.8125 -15.695312 16.8125 -13.75 C 16.8125 -12.3125 16.453125 -11.140625 15.734375 -10.234375 C 15.015625 -9.328125 14.035156 -8.691406 12.796875 -8.328125 L 17.125 -0.875 C 17.175781 -0.757812 17.203125 -0.65625 17.203125 -0.5625 C 17.203125 -0.414062 17.140625 -0.285156 17.015625 -0.171875 C 16.898438 -0.0546875 16.765625 0 16.609375 0 L 15.265625 0 C 14.941406 0 14.707031 -0.0820312 14.5625 -0.25 C 14.414062 -0.414062 14.285156 -0.582031 14.171875 -0.75 L 10.109375 -7.890625 L 5.1875 -7.890625 L 5.1875 -0.640625 C 5.1875 -0.453125 5.125 -0.296875 5 -0.171875 C 4.882812 -0.0546875 4.722656 0 4.515625 0 Z M 5.1875 -10.265625 L 9.828125 -10.265625 C 11.222656 -10.265625 12.265625 -10.554688 12.953125 -11.140625 C 13.648438 -11.734375 14 -12.613281 14 -13.78125 C 14 -14.914062 13.65625 -15.78125 12.96875 -16.375 C 12.289062 -16.976562 11.242188 -17.28125 9.828125 -17.28125 L 5.1875 -17.28125 Z M 5.1875 -10.265625 "/></g></g></g><g fill="#0e2359" fill-opacity="1"><g transform="translate(188.873024, 235.499985)"><g><path d="M 8.328125 0 C 8.140625 0 7.984375 -0.0546875 7.859375 -0.171875 C 7.742188 -0.296875 7.6875 -0.453125 7.6875 -0.640625 L 7.6875 -7.265625 L 0.921875 -18.71875 C 0.898438 -18.769531 0.878906 -18.820312 0.859375 -18.875 C 0.847656 -18.9375 0.84375 -19.003906 0.84375 -19.078125 C 0.84375 -19.234375 0.894531 -19.363281 1 -19.46875 C 1.113281 -19.582031 1.25 -19.640625 1.40625 -19.640625 L 2.859375 -19.640625 C 3.023438 -19.640625 3.175781 -19.597656 3.3125 -19.515625 C 3.445312 -19.429688 3.539062 -19.316406 3.59375 -19.171875 L 9.0625 -10.078125 L 14.53125 -19.171875 C 14.625 -19.316406 14.734375 -19.429688 14.859375 -19.515625 C 14.984375 -19.597656 15.128906 -19.640625 15.296875 -19.640625 L 16.71875 -19.640625 C 16.894531 -19.640625 17.035156 -19.582031 17.140625 -19.46875 C 17.253906 -19.363281 17.3125 -19.234375 17.3125 -19.078125 C 17.3125 -19.003906 17.300781 -18.9375 17.28125 -18.875 C 17.269531 -18.820312 17.242188 -18.769531 17.203125 -18.71875 L 10.46875 -7.265625 L 10.46875 -0.640625 C 10.46875 -0.453125 10.40625 -0.296875 10.28125 -0.171875 C 10.164062 -0.0546875 10.003906 0 9.796875 0 Z M 8.328125 0 "/></g></g></g><g fill="#0e2359" fill-opacity="1"><g transform="translate(168.967273, 274.499982)"><g><path d="M 3.09375 0 C 2.882812 0 2.722656 -0.0546875 2.609375 -0.171875 C 2.492188 -0.296875 2.4375 -0.453125 2.4375 -0.640625 L 2.4375 -18.96875 C 2.4375 -19.175781 2.492188 -19.335938 2.609375 -19.453125 C 2.722656 -19.578125 2.882812 -19.640625 3.09375 -19.640625 L 14.53125 -19.640625 C 14.738281 -19.640625 14.898438 -19.578125 15.015625 -19.453125 C 15.140625 -19.335938 15.203125 -19.175781 15.203125 -18.96875 L 15.203125 -17.84375 C 15.203125 -17.644531 15.140625 -17.488281 15.015625 -17.375 C 14.898438 -17.257812 14.738281 -17.203125 14.53125 -17.203125 L 5.15625 -17.203125 L 5.15625 -10.65625 L 13.96875 -10.65625 C 14.175781 -10.65625 14.34375 -10.59375 14.46875 -10.46875 C 14.59375 -10.351562 14.65625 -10.191406 14.65625 -9.984375 L 14.65625 -8.875 C 14.65625 -8.6875 14.59375 -8.53125 14.46875 -8.40625 C 14.34375 -8.28125 14.175781 -8.21875 13.96875 -8.21875 L 5.15625 -8.21875 L 5.15625 -0.640625 C 5.15625 -0.453125 5.09375 -0.296875 4.96875 -0.171875 C 4.851562 -0.0546875 4.691406 0 4.484375 0 Z M 3.09375 0 "/></g></g></g><g fill="#0e2359" fill-opacity="1"><g transform="translate(187.87724, 274.499982)"><g><path d="M 8.328125 0 C 8.140625 0 7.984375 -0.0546875 7.859375 -0.171875 C 7.742188 -0.296875 7.6875 -0.453125 7.6875 -0.640625 L 7.6875 -7.265625 L 0.921875 -18.71875 C 0.898438 -18.769531 0.878906 -18.820312 0.859375 -18.875 C 0.847656 -18.9375 0.84375 -19.003906 0.84375 -19.078125 C 0.84375 -19.234375 0.894531 -19.363281 1 -19.46875 C 1.113281 -19.582031 1.25 -19.640625 1.40625 -19.640625 L 2.859375 -19.640625 C 3.023438 -19.640625 3.175781 -19.597656 3.3125 -19.515625 C 3.445312 -19.429688 3.539062 -19.316406 3.59375 -19.171875 L 9.0625 -10.078125 L 14.53125 -19.171875 C 14.625 -19.316406 14.734375 -19.429688 14.859375 -19.515625 C 14.984375 -19.597656 15.128906 -19.640625 15.296875 -19.640625 L 16.71875 -19.640625 C 16.894531 -19.640625 17.035156 -19.582031 17.140625 -19.46875 C 17.253906 -19.363281 17.3125 -19.234375 17.3125 -19.078125 C 17.3125 -19.003906 17.300781 -18.9375 17.28125 -18.875 C 17.269531 -18.820312 17.242188 -18.769531 17.203125 -18.71875 L 10.46875 -7.265625 L 10.46875 -0.640625 C 10.46875 -0.453125 10.40625 -0.296875 10.28125 -0.171875 C 10.164062 -0.0546875 10.003906 0 9.796875 0 Z M 8.328125 0 "/></g></g></g><g clip-path="url(#8e1716dbf7)"><path fill="#2eb1bb" d="M 39.734375 37.550781 C 39.734375 37.550781 50.300781 71.628906 97.242188 97.480469 C 154.914062 129.207031 162.796875 152.039062 150.054688 226.074219 C 148.546875 239 132.785156 280.632812 66.058594 301.449219 C 66.058594 301.449219 83.160156 274.253906 83.664062 251.257812 C 84.003906 231.277344 81.988281 199.886719 107.808594 185.449219 C 86.179688 178.90625 65.890625 176.382812 70.925781 147.679688 C 54.996094 142.976562 41.417969 124.347656 50.972656 107.894531 C 50.96875 107.890625 20.960938 84.554688 39.734375 37.550781 Z M 39.734375 37.550781 " fill-opacity="1" fill-rule="evenodd"/></g><g clip-path="url(#52cb5bc3b5)"><path fill="#1772bb" d="M 150.054688 226.074219 C 148.546875 239 132.785156 280.632812 66.058594 301.449219 C 66.058594 301.449219 83.160156 274.253906 83.664062 251.257812 C 84.003906 231.277344 81.988281 199.886719 107.808594 185.449219 C 125.574219 190.652344 144.1875 198.707031 150.054688 226.074219 Z M 150.054688 226.074219 " fill-opacity="1" fill-rule="evenodd"/></g></svg>