<svg xmlns="http://www.w3.org/2000/svg" xmlns:xlink="http://www.w3.org/1999/xlink" width="500" zoomAndPan="magnify" viewBox="0 0 375 374.999991" height="500" preserveAspectRatio="xMidYMid meet" version="1.0"><defs><g/><linearGradient x1="0" gradientTransform="matrix(0.75, 0, 0, 0.75, 0.0000045, 0)" y1="0" x2="499.999979" gradientUnits="userSpaceOnUse" y2="0" id="3208e50975"><stop stop-opacity="1" stop-color="rgb(95.698547%, 37.599182%, 65.499878%)" offset="0"/><stop stop-opacity="1" stop-color="rgb(95.706177%, 37.712097%, 65.562439%)" offset="0.0078125"/><stop stop-opacity="1" stop-color="rgb(95.721436%, 37.939453%, 65.687561%)" offset="0.015625"/><stop stop-opacity="1" stop-color="rgb(95.736694%, 38.166809%, 65.812683%)" offset="0.0234375"/><stop stop-opacity="1" stop-color="rgb(95.750427%, 38.394165%, 65.939331%)" offset="0.03125"/><stop stop-opacity="1" stop-color="rgb(95.765686%, 38.621521%, 66.064453%)" offset="0.0390625"/><stop stop-opacity="1" stop-color="rgb(95.780945%, 38.848877%, 66.191101%)" offset="0.046875"/><stop stop-opacity="1" stop-color="rgb(95.796204%, 39.076233%, 66.316223%)" offset="0.0546875"/><stop stop-opacity="1" stop-color="rgb(95.809937%, 39.303589%, 66.442871%)" offset="0.0625"/><stop stop-opacity="1" stop-color="rgb(95.825195%, 39.530945%, 66.567993%)" offset="0.0703125"/><stop stop-opacity="1" stop-color="rgb(95.840454%, 39.758301%, 66.693115%)" offset="0.078125"/><stop stop-opacity="1" stop-color="rgb(95.854187%, 39.985657%, 66.819763%)" offset="0.0859375"/><stop stop-opacity="1" stop-color="rgb(95.869446%, 40.213013%, 66.944885%)" offset="0.09375"/><stop stop-opacity="1" stop-color="rgb(95.884705%, 40.440369%, 67.071533%)" offset="0.101562"/><stop stop-opacity="1" stop-color="rgb(95.899963%, 40.667725%, 67.196655%)" offset="0.109375"/><stop stop-opacity="1" stop-color="rgb(95.913696%, 40.895081%, 67.323303%)" offset="0.117188"/><stop stop-opacity="1" stop-color="rgb(95.928955%, 41.122437%, 67.448425%)" offset="0.125"/><stop stop-opacity="1" stop-color="rgb(95.944214%, 41.349792%, 67.573547%)" offset="0.132812"/><stop stop-opacity="1" stop-color="rgb(95.959473%, 41.577148%, 67.700195%)" offset="0.140625"/><stop stop-opacity="1" stop-color="rgb(95.973206%, 41.804504%, 67.825317%)" offset="0.148437"/><stop stop-opacity="1" stop-color="rgb(95.988464%, 42.03186%, 67.951965%)" offset="0.15625"/><stop stop-opacity="1" stop-color="rgb(96.003723%, 42.259216%, 68.077087%)" offset="0.164062"/><stop stop-opacity="1" stop-color="rgb(96.017456%, 42.486572%, 68.203735%)" offset="0.171875"/><stop stop-opacity="1" stop-color="rgb(96.032715%, 42.713928%, 68.328857%)" offset="0.179687"/><stop stop-opacity="1" stop-color="rgb(96.047974%, 42.941284%, 68.455505%)" offset="0.1875"/><stop stop-opacity="1" stop-color="rgb(96.063232%, 43.16864%, 68.580627%)" offset="0.195312"/><stop stop-opacity="1" stop-color="rgb(96.076965%, 43.395996%, 68.70575%)" offset="0.203125"/><stop stop-opacity="1" stop-color="rgb(96.092224%, 43.623352%, 68.832397%)" offset="0.210938"/><stop stop-opacity="1" stop-color="rgb(96.107483%, 43.850708%, 68.95752%)" offset="0.21875"/><stop stop-opacity="1" stop-color="rgb(96.122742%, 44.078064%, 69.084167%)" offset="0.226562"/><stop stop-opacity="1" stop-color="rgb(96.136475%, 44.30542%, 69.20929%)" offset="0.234375"/><stop stop-opacity="1" stop-color="rgb(96.151733%, 44.532776%, 69.335938%)" offset="0.242188"/><stop stop-opacity="1" stop-color="rgb(96.166992%, 44.760132%, 69.46106%)" offset="0.25"/><stop stop-opacity="1" stop-color="rgb(96.180725%, 44.987488%, 69.586182%)" offset="0.257812"/><stop stop-opacity="1" stop-color="rgb(96.195984%, 45.214844%, 69.71283%)" offset="0.265625"/><stop stop-opacity="1" stop-color="rgb(96.211243%, 45.4422%, 69.837952%)" offset="0.273437"/><stop stop-opacity="1" stop-color="rgb(96.226501%, 45.669556%, 69.9646%)" offset="0.28125"/><stop stop-opacity="1" stop-color="rgb(96.240234%, 45.896912%, 70.089722%)" offset="0.289062"/><stop stop-opacity="1" stop-color="rgb(96.255493%, 46.124268%, 70.21637%)" offset="0.296875"/><stop stop-opacity="1" stop-color="rgb(96.270752%, 46.351624%, 70.341492%)" offset="0.304687"/><stop stop-opacity="1" stop-color="rgb(96.286011%, 46.578979%, 70.466614%)" offset="0.3125"/><stop stop-opacity="1" stop-color="rgb(96.299744%, 46.806335%, 70.593262%)" offset="0.320312"/><stop stop-opacity="1" stop-color="rgb(96.315002%, 47.033691%, 70.718384%)" offset="0.328125"/><stop stop-opacity="1" stop-color="rgb(96.330261%, 47.261047%, 70.845032%)" offset="0.335937"/><stop stop-opacity="1" stop-color="rgb(96.343994%, 47.488403%, 70.970154%)" offset="0.34375"/><stop stop-opacity="1" stop-color="rgb(96.359253%, 47.715759%, 71.096802%)" offset="0.351562"/><stop stop-opacity="1" stop-color="rgb(96.374512%, 47.943115%, 71.221924%)" offset="0.359375"/><stop stop-opacity="1" stop-color="rgb(96.389771%, 48.170471%, 71.347046%)" offset="0.367187"/><stop stop-opacity="1" stop-color="rgb(96.403503%, 48.397827%, 71.473694%)" offset="0.375"/><stop stop-opacity="1" stop-color="rgb(96.418762%, 48.625183%, 71.598816%)" offset="0.382812"/><stop stop-opacity="1" stop-color="rgb(96.434021%, 48.852539%, 71.725464%)" offset="0.390625"/><stop stop-opacity="1" stop-color="rgb(96.44928%, 49.079895%, 71.850586%)" offset="0.398438"/><stop stop-opacity="1" stop-color="rgb(96.463013%, 49.307251%, 71.977234%)" offset="0.40625"/><stop stop-opacity="1" stop-color="rgb(96.478271%, 49.534607%, 72.102356%)" offset="0.414062"/><stop stop-opacity="1" stop-color="rgb(96.49353%, 49.761963%, 72.227478%)" offset="0.421875"/><stop stop-opacity="1" stop-color="rgb(96.507263%, 49.989319%, 72.354126%)" offset="0.429688"/><stop stop-opacity="1" stop-color="rgb(96.522522%, 50.216675%, 72.479248%)" offset="0.4375"/><stop stop-opacity="1" stop-color="rgb(96.537781%, 50.444031%, 72.605896%)" offset="0.445312"/><stop stop-opacity="1" stop-color="rgb(96.55304%, 50.671387%, 72.731018%)" offset="0.453125"/><stop stop-opacity="1" stop-color="rgb(96.566772%, 50.898743%, 72.857666%)" offset="0.460938"/><stop stop-opacity="1" stop-color="rgb(96.582031%, 51.126099%, 72.982788%)" offset="0.46875"/><stop stop-opacity="1" stop-color="rgb(96.59729%, 51.353455%, 73.10791%)" offset="0.476562"/><stop stop-opacity="1" stop-color="rgb(96.612549%, 51.580811%, 73.234558%)" offset="0.484375"/><stop stop-opacity="1" stop-color="rgb(96.626282%, 51.808167%, 73.35968%)" offset="0.492188"/><stop stop-opacity="1" stop-color="rgb(96.641541%, 52.035522%, 73.486328%)" offset="0.5"/><stop stop-opacity="1" stop-color="rgb(96.656799%, 52.262878%, 73.61145%)" offset="0.507812"/><stop stop-opacity="1" stop-color="rgb(96.670532%, 52.490234%, 73.738098%)" offset="0.515625"/><stop stop-opacity="1" stop-color="rgb(96.685791%, 52.71759%, 73.86322%)" offset="0.523437"/><stop stop-opacity="1" stop-color="rgb(96.70105%, 52.94342%, 73.989868%)" offset="0.53125"/><stop stop-opacity="1" stop-color="rgb(96.716309%, 53.170776%, 74.11499%)" offset="0.539062"/><stop stop-opacity="1" stop-color="rgb(96.730042%, 53.398132%, 74.240112%)" offset="0.546875"/><stop stop-opacity="1" stop-color="rgb(96.7453%, 53.625488%, 74.36676%)" offset="0.554687"/><stop stop-opacity="1" stop-color="rgb(96.760559%, 53.852844%, 74.491882%)" offset="0.5625"/><stop stop-opacity="1" stop-color="rgb(96.775818%, 54.0802%, 74.61853%)" offset="0.570312"/><stop stop-opacity="1" stop-color="rgb(96.789551%, 54.307556%, 74.743652%)" offset="0.578125"/><stop stop-opacity="1" stop-color="rgb(96.80481%, 54.534912%, 74.8703%)" offset="0.585937"/><stop stop-opacity="1" stop-color="rgb(96.820068%, 54.762268%, 74.995422%)" offset="0.59375"/><stop stop-opacity="1" stop-color="rgb(96.835327%, 54.989624%, 75.120544%)" offset="0.601562"/><stop stop-opacity="1" stop-color="rgb(96.84906%, 55.21698%, 75.247192%)" offset="0.609375"/><stop stop-opacity="1" stop-color="rgb(96.864319%, 55.444336%, 75.372314%)" offset="0.617187"/><stop stop-opacity="1" stop-color="rgb(96.879578%, 55.671692%, 75.498962%)" offset="0.625"/><stop stop-opacity="1" stop-color="rgb(96.893311%, 55.899048%, 75.624084%)" offset="0.632812"/><stop stop-opacity="1" stop-color="rgb(96.908569%, 56.126404%, 75.750732%)" offset="0.640625"/><stop stop-opacity="1" stop-color="rgb(96.923828%, 56.35376%, 75.875854%)" offset="0.648437"/><stop stop-opacity="1" stop-color="rgb(96.939087%, 56.581116%, 76.000977%)" offset="0.65625"/><stop stop-opacity="1" stop-color="rgb(96.95282%, 56.808472%, 76.127625%)" offset="0.664062"/><stop stop-opacity="1" stop-color="rgb(96.968079%, 57.035828%, 76.252747%)" offset="0.671875"/><stop stop-opacity="1" stop-color="rgb(96.983337%, 57.263184%, 76.379395%)" offset="0.679687"/><stop stop-opacity="1" stop-color="rgb(96.998596%, 57.49054%, 76.504517%)" offset="0.6875"/><stop stop-opacity="1" stop-color="rgb(97.012329%, 57.717896%, 76.631165%)" offset="0.695312"/><stop stop-opacity="1" stop-color="rgb(97.027588%, 57.945251%, 76.756287%)" offset="0.703125"/><stop stop-opacity="1" stop-color="rgb(97.042847%, 58.172607%, 76.881409%)" offset="0.710937"/><stop stop-opacity="1" stop-color="rgb(97.05658%, 58.399963%, 77.008057%)" offset="0.71875"/><stop stop-opacity="1" stop-color="rgb(97.071838%, 58.627319%, 77.133179%)" offset="0.726562"/><stop stop-opacity="1" stop-color="rgb(97.087097%, 58.854675%, 77.259827%)" offset="0.734375"/><stop stop-opacity="1" stop-color="rgb(97.102356%, 59.082031%, 77.384949%)" offset="0.742187"/><stop stop-opacity="1" stop-color="rgb(97.116089%, 59.309387%, 77.511597%)" offset="0.75"/><stop stop-opacity="1" stop-color="rgb(97.131348%, 59.536743%, 77.636719%)" offset="0.757812"/><stop stop-opacity="1" stop-color="rgb(97.146606%, 59.764099%, 77.761841%)" offset="0.765625"/><stop stop-opacity="1" stop-color="rgb(97.161865%, 59.991455%, 77.888489%)" offset="0.773438"/><stop stop-opacity="1" stop-color="rgb(97.175598%, 60.218811%, 78.013611%)" offset="0.78125"/><stop stop-opacity="1" stop-color="rgb(97.190857%, 60.446167%, 78.140259%)" offset="0.789062"/><stop stop-opacity="1" stop-color="rgb(97.206116%, 60.673523%, 78.265381%)" offset="0.796875"/><stop stop-opacity="1" stop-color="rgb(97.219849%, 60.900879%, 78.392029%)" offset="0.804688"/><stop stop-opacity="1" stop-color="rgb(97.235107%, 61.128235%, 78.517151%)" offset="0.8125"/><stop stop-opacity="1" stop-color="rgb(97.250366%, 61.355591%, 78.643799%)" offset="0.820312"/><stop stop-opacity="1" stop-color="rgb(97.265625%, 61.582947%, 78.768921%)" offset="0.828125"/><stop stop-opacity="1" stop-color="rgb(97.279358%, 61.810303%, 78.894043%)" offset="0.835938"/><stop stop-opacity="1" stop-color="rgb(97.294617%, 62.037659%, 79.020691%)" offset="0.84375"/><stop stop-opacity="1" stop-color="rgb(97.309875%, 62.265015%, 79.145813%)" offset="0.851562"/><stop stop-opacity="1" stop-color="rgb(97.325134%, 62.492371%, 79.272461%)" offset="0.859375"/><stop stop-opacity="1" stop-color="rgb(97.338867%, 62.719727%, 79.397583%)" offset="0.867188"/><stop stop-opacity="1" stop-color="rgb(97.354126%, 62.947083%, 79.524231%)" offset="0.875"/><stop stop-opacity="1" stop-color="rgb(97.369385%, 63.174438%, 79.649353%)" offset="0.882812"/><stop stop-opacity="1" stop-color="rgb(97.383118%, 63.401794%, 79.774475%)" offset="0.890625"/><stop stop-opacity="1" stop-color="rgb(97.398376%, 63.62915%, 79.901123%)" offset="0.898438"/><stop stop-opacity="1" stop-color="rgb(97.413635%, 63.856506%, 80.026245%)" offset="0.90625"/><stop stop-opacity="1" stop-color="rgb(97.428894%, 64.083862%, 80.152893%)" offset="0.914062"/><stop stop-opacity="1" stop-color="rgb(97.442627%, 64.311218%, 80.278015%)" offset="0.921875"/><stop stop-opacity="1" stop-color="rgb(97.457886%, 64.538574%, 80.404663%)" offset="0.929688"/><stop stop-opacity="1" stop-color="rgb(97.473145%, 64.76593%, 80.529785%)" offset="0.9375"/><stop stop-opacity="1" stop-color="rgb(97.488403%, 64.993286%, 80.654907%)" offset="0.945312"/><stop stop-opacity="1" stop-color="rgb(97.502136%, 65.220642%, 80.781555%)" offset="0.953125"/><stop stop-opacity="1" stop-color="rgb(97.517395%, 65.447998%, 80.906677%)" offset="0.960938"/><stop stop-opacity="1" stop-color="rgb(97.532654%, 65.675354%, 81.033325%)" offset="0.96875"/><stop stop-opacity="1" stop-color="rgb(97.546387%, 65.90271%, 81.158447%)" offset="0.976562"/><stop stop-opacity="1" stop-color="rgb(97.561646%, 66.130066%, 81.285095%)" offset="0.984375"/><stop stop-opacity="1" stop-color="rgb(97.576904%, 66.357422%, 81.410217%)" offset="0.992188"/><stop stop-opacity="1" stop-color="rgb(97.592163%, 66.584778%, 81.535339%)" offset="1"/></linearGradient><clipPath id="a43333c50c"><path d="M 217 55.273438 L 331 55.273438 L 331 299.773438 L 217 299.773438 Z M 217 55.273438 " clip-rule="nonzero"/></clipPath><clipPath id="de8be7d859"><path d="M 222 192 L 301 192 L 301 299.773438 L 222 299.773438 Z M 222 192 " clip-rule="nonzero"/></clipPath><clipPath id="fb91b41d6c"><path d="M 44 55.273438 L 158 55.273438 L 158 299.773438 L 44 299.773438 Z M 44 55.273438 " clip-rule="nonzero"/></clipPath><clipPath id="80c2e0ee2d"><path d="M 74 192 L 153 192 L 153 299.773438 L 74 299.773438 Z M 74 192 " clip-rule="nonzero"/></clipPath></defs><rect x="-37.5" fill="url(#3208e50975)" width="450" y="-37.499999" height="449.999989"/><g clip-path="url(#a43333c50c)"><path fill="#31c695" d="M 324.636719 55.316406 C 324.636719 55.316406 314.839844 86.878906 271.300781 110.820312 C 217.816406 140.203125 210.507812 161.351562 222.324219 229.917969 C 223.722656 241.890625 238.339844 280.449219 300.222656 299.726562 C 300.222656 299.726562 284.363281 274.539062 283.894531 253.242188 C 283.582031 234.738281 285.449219 205.664062 261.503906 192.292969 C 281.5625 186.234375 300.378906 183.894531 295.710938 157.3125 C 310.484375 152.957031 323.078125 135.703125 314.214844 120.464844 C 314.21875 120.460938 342.046875 98.851562 324.636719 55.316406 Z M 324.636719 55.316406 " fill-opacity="1" fill-rule="evenodd"/></g><g clip-path="url(#de8be7d859)"><path fill="#208161" d="M 222.324219 229.917969 C 223.722656 241.890625 238.339844 280.449219 300.222656 299.726562 C 300.222656 299.726562 284.363281 274.539062 283.894531 253.242188 C 283.582031 234.738281 285.449219 205.664062 261.503906 192.292969 C 245.027344 197.113281 227.765625 204.574219 222.324219 229.917969 Z M 222.324219 229.917969 " fill-opacity="1" fill-rule="evenodd"/></g><g fill="#0e2359" fill-opacity="1"><g transform="translate(169.624783, 130.368545)"><g><path d="M 8.109375 0.265625 C 6.609375 0.265625 5.34375 0.03125 4.3125 -0.4375 C 3.289062 -0.90625 2.503906 -1.507812 1.953125 -2.25 C 1.410156 -2.988281 1.125 -3.765625 1.09375 -4.578125 C 1.09375 -4.710938 1.148438 -4.835938 1.265625 -4.953125 C 1.378906 -5.066406 1.515625 -5.125 1.671875 -5.125 L 2.984375 -5.125 C 3.191406 -5.125 3.347656 -5.070312 3.453125 -4.96875 C 3.554688 -4.863281 3.628906 -4.742188 3.671875 -4.609375 C 3.773438 -4.191406 3.988281 -3.773438 4.3125 -3.359375 C 4.644531 -2.953125 5.117188 -2.613281 5.734375 -2.34375 C 6.347656 -2.082031 7.140625 -1.953125 8.109375 -1.953125 C 9.609375 -1.953125 10.707031 -2.210938 11.40625 -2.734375 C 12.113281 -3.265625 12.46875 -3.972656 12.46875 -4.859375 C 12.46875 -5.472656 12.28125 -5.960938 11.90625 -6.328125 C 11.53125 -6.703125 10.957031 -7.035156 10.1875 -7.328125 C 9.425781 -7.628906 8.441406 -7.953125 7.234375 -8.296875 C 5.960938 -8.660156 4.910156 -9.054688 4.078125 -9.484375 C 3.242188 -9.921875 2.625 -10.460938 2.21875 -11.109375 C 1.8125 -11.753906 1.609375 -12.566406 1.609375 -13.546875 C 1.609375 -14.484375 1.859375 -15.320312 2.359375 -16.0625 C 2.867188 -16.800781 3.597656 -17.382812 4.546875 -17.8125 C 5.503906 -18.25 6.648438 -18.46875 7.984375 -18.46875 C 9.054688 -18.46875 9.992188 -18.320312 10.796875 -18.03125 C 11.609375 -17.75 12.28125 -17.367188 12.8125 -16.890625 C 13.351562 -16.421875 13.765625 -15.910156 14.046875 -15.359375 C 14.328125 -14.816406 14.472656 -14.285156 14.484375 -13.765625 C 14.484375 -13.640625 14.441406 -13.519531 14.359375 -13.40625 C 14.273438 -13.289062 14.132812 -13.234375 13.9375 -13.234375 L 12.5625 -13.234375 C 12.445312 -13.234375 12.320312 -13.269531 12.1875 -13.34375 C 12.0625 -13.414062 11.960938 -13.546875 11.890625 -13.734375 C 11.785156 -14.441406 11.382812 -15.039062 10.6875 -15.53125 C 10 -16.019531 9.097656 -16.265625 7.984375 -16.265625 C 6.859375 -16.265625 5.941406 -16.046875 5.234375 -15.609375 C 4.535156 -15.171875 4.1875 -14.492188 4.1875 -13.578125 C 4.1875 -12.992188 4.347656 -12.503906 4.671875 -12.109375 C 5.003906 -11.722656 5.523438 -11.378906 6.234375 -11.078125 C 6.953125 -10.785156 7.882812 -10.472656 9.03125 -10.140625 C 10.414062 -9.765625 11.550781 -9.363281 12.4375 -8.9375 C 13.320312 -8.507812 13.972656 -7.976562 14.390625 -7.34375 C 14.816406 -6.71875 15.03125 -5.910156 15.03125 -4.921875 C 15.03125 -3.828125 14.742188 -2.894531 14.171875 -2.125 C 13.597656 -1.351562 12.796875 -0.757812 11.765625 -0.34375 C 10.734375 0.0625 9.515625 0.265625 8.109375 0.265625 Z M 8.109375 0.265625 "/></g></g></g><g fill="#0e2359" fill-opacity="1"><g transform="translate(188.145021, 130.368545)"><g><path d="M 7.734375 0 C 7.554688 0 7.410156 -0.0546875 7.296875 -0.171875 C 7.179688 -0.285156 7.125 -0.425781 7.125 -0.59375 L 7.125 -6.734375 L 0.859375 -17.359375 C 0.835938 -17.410156 0.816406 -17.460938 0.796875 -17.515625 C 0.785156 -17.566406 0.78125 -17.625 0.78125 -17.6875 C 0.78125 -17.832031 0.832031 -17.953125 0.9375 -18.046875 C 1.039062 -18.148438 1.160156 -18.203125 1.296875 -18.203125 L 2.65625 -18.203125 C 2.8125 -18.203125 2.945312 -18.164062 3.0625 -18.09375 C 3.1875 -18.019531 3.273438 -17.910156 3.328125 -17.765625 L 8.40625 -9.34375 L 13.46875 -17.765625 C 13.5625 -17.910156 13.660156 -18.019531 13.765625 -18.09375 C 13.878906 -18.164062 14.015625 -18.203125 14.171875 -18.203125 L 15.5 -18.203125 C 15.65625 -18.203125 15.785156 -18.148438 15.890625 -18.046875 C 15.992188 -17.953125 16.046875 -17.832031 16.046875 -17.6875 C 16.046875 -17.625 16.035156 -17.566406 16.015625 -17.515625 C 16.003906 -17.460938 15.984375 -17.410156 15.953125 -17.359375 L 9.703125 -6.734375 L 9.703125 -0.59375 C 9.703125 -0.425781 9.644531 -0.285156 9.53125 -0.171875 C 9.414062 -0.0546875 9.265625 0 9.078125 0 Z M 7.734375 0 "/></g></g></g><g fill="#0e2359" fill-opacity="1"><g transform="translate(165.485327, 166.52632)"><g><path d="M 2.859375 0 C 2.679688 0 2.535156 -0.0546875 2.421875 -0.171875 C 2.316406 -0.285156 2.265625 -0.425781 2.265625 -0.59375 L 2.265625 -17.59375 C 2.265625 -17.78125 2.316406 -17.925781 2.421875 -18.03125 C 2.535156 -18.144531 2.679688 -18.203125 2.859375 -18.203125 L 4.15625 -18.203125 C 4.363281 -18.203125 4.519531 -18.148438 4.625 -18.046875 C 4.726562 -17.953125 4.800781 -17.867188 4.84375 -17.796875 L 10.328125 -7.28125 L 15.875 -17.796875 C 15.90625 -17.867188 15.96875 -17.953125 16.0625 -18.046875 C 16.15625 -18.148438 16.304688 -18.203125 16.515625 -18.203125 L 17.796875 -18.203125 C 17.984375 -18.203125 18.132812 -18.144531 18.25 -18.03125 C 18.363281 -17.925781 18.421875 -17.78125 18.421875 -17.59375 L 18.421875 -0.59375 C 18.421875 -0.425781 18.363281 -0.285156 18.25 -0.171875 C 18.132812 -0.0546875 17.984375 0 17.796875 0 L 16.515625 0 C 16.347656 0 16.207031 -0.0546875 16.09375 -0.171875 C 15.976562 -0.285156 15.921875 -0.425781 15.921875 -0.59375 L 15.921875 -13.390625 L 11.578125 -4.921875 C 11.503906 -4.742188 11.398438 -4.609375 11.265625 -4.515625 C 11.128906 -4.421875 10.957031 -4.375 10.75 -4.375 L 9.9375 -4.375 C 9.707031 -4.375 9.53125 -4.421875 9.40625 -4.515625 C 9.289062 -4.609375 9.191406 -4.742188 9.109375 -4.921875 L 4.734375 -13.390625 L 4.734375 -0.59375 C 4.734375 -0.425781 4.675781 -0.285156 4.5625 -0.171875 C 4.445312 -0.0546875 4.304688 0 4.140625 0 Z M 2.859375 0 "/></g></g></g><g fill="#0e2359" fill-opacity="1"><g transform="translate(188.479302, 166.52632)"><g><path d="M 2.859375 0 C 2.679688 0 2.535156 -0.0546875 2.421875 -0.171875 C 2.316406 -0.285156 2.265625 -0.425781 2.265625 -0.59375 L 2.265625 -17.59375 C 2.265625 -17.78125 2.316406 -17.925781 2.421875 -18.03125 C 2.535156 -18.144531 2.679688 -18.203125 2.859375 -18.203125 L 4.15625 -18.203125 C 4.363281 -18.203125 4.519531 -18.148438 4.625 -18.046875 C 4.726562 -17.953125 4.800781 -17.867188 4.84375 -17.796875 L 10.328125 -7.28125 L 15.875 -17.796875 C 15.90625 -17.867188 15.96875 -17.953125 16.0625 -18.046875 C 16.15625 -18.148438 16.304688 -18.203125 16.515625 -18.203125 L 17.796875 -18.203125 C 17.984375 -18.203125 18.132812 -18.144531 18.25 -18.03125 C 18.363281 -17.925781 18.421875 -17.78125 18.421875 -17.59375 L 18.421875 -0.59375 C 18.421875 -0.425781 18.363281 -0.285156 18.25 -0.171875 C 18.132812 -0.0546875 17.984375 0 17.796875 0 L 16.515625 0 C 16.347656 0 16.207031 -0.0546875 16.09375 -0.171875 C 15.976562 -0.285156 15.921875 -0.425781 15.921875 -0.59375 L 15.921875 -13.390625 L 11.578125 -4.921875 C 11.503906 -4.742188 11.398438 -4.609375 11.265625 -4.515625 C 11.128906 -4.421875 10.957031 -4.375 10.75 -4.375 L 9.9375 -4.375 C 9.707031 -4.375 9.53125 -4.421875 9.40625 -4.515625 C 9.289062 -4.609375 9.191406 -4.742188 9.109375 -4.921875 L 4.734375 -13.390625 L 4.734375 -0.59375 C 4.734375 -0.425781 4.675781 -0.285156 4.5625 -0.171875 C 4.445312 -0.0546875 4.304688 0 4.140625 0 Z M 2.859375 0 "/></g></g></g><g fill="#0e2359" fill-opacity="1"><g transform="translate(170.72212, 202.684095)"><g><path d="M 2.859375 0 C 2.671875 0 2.523438 -0.0546875 2.421875 -0.171875 C 2.316406 -0.285156 2.265625 -0.425781 2.265625 -0.59375 L 2.265625 -17.59375 C 2.265625 -17.78125 2.316406 -17.925781 2.421875 -18.03125 C 2.523438 -18.144531 2.671875 -18.203125 2.859375 -18.203125 L 13.609375 -18.203125 C 13.796875 -18.203125 13.941406 -18.144531 14.046875 -18.03125 C 14.148438 -17.925781 14.203125 -17.78125 14.203125 -17.59375 L 14.203125 -16.59375 C 14.203125 -16.40625 14.148438 -16.257812 14.046875 -16.15625 C 13.941406 -16.050781 13.796875 -16 13.609375 -16 L 4.765625 -16 L 4.765625 -10.296875 L 13.03125 -10.296875 C 13.21875 -10.296875 13.363281 -10.238281 13.46875 -10.125 C 13.570312 -10.019531 13.625 -9.867188 13.625 -9.671875 L 13.625 -8.71875 C 13.625 -8.539062 13.570312 -8.394531 13.46875 -8.28125 C 13.363281 -8.164062 13.21875 -8.109375 13.03125 -8.109375 L 4.765625 -8.109375 L 4.765625 -2.21875 L 13.8125 -2.21875 C 14 -2.21875 14.144531 -2.164062 14.25 -2.0625 C 14.351562 -1.957031 14.40625 -1.804688 14.40625 -1.609375 L 14.40625 -0.59375 C 14.40625 -0.425781 14.351562 -0.285156 14.25 -0.171875 C 14.144531 -0.0546875 14 0 13.8125 0 Z M 2.859375 0 "/></g></g></g><g fill="#0e2359" fill-opacity="1"><g transform="translate(188.826198, 202.684095)"><g><path d="M 6.84375 0 C 6.664062 0 6.519531 -0.0546875 6.40625 -0.171875 C 6.300781 -0.285156 6.25 -0.425781 6.25 -0.59375 L 6.25 -15.890625 L 1.25 -15.890625 C 1.070312 -15.890625 0.925781 -15.945312 0.8125 -16.0625 C 0.707031 -16.175781 0.65625 -16.320312 0.65625 -16.5 L 0.65625 -17.59375 C 0.65625 -17.78125 0.707031 -17.925781 0.8125 -18.03125 C 0.925781 -18.144531 1.070312 -18.203125 1.25 -18.203125 L 13.78125 -18.203125 C 13.976562 -18.203125 14.128906 -18.144531 14.234375 -18.03125 C 14.347656 -17.925781 14.40625 -17.78125 14.40625 -17.59375 L 14.40625 -16.5 C 14.40625 -16.320312 14.347656 -16.175781 14.234375 -16.0625 C 14.128906 -15.945312 13.976562 -15.890625 13.78125 -15.890625 L 8.8125 -15.890625 L 8.8125 -0.59375 C 8.8125 -0.425781 8.753906 -0.285156 8.640625 -0.171875 C 8.535156 -0.0546875 8.382812 0 8.1875 0 Z M 6.84375 0 "/></g></g></g><g fill="#0e2359" fill-opacity="1"><g transform="translate(165.300626, 238.84187)"><g><path d="M 2.859375 0 C 2.671875 0 2.523438 -0.0546875 2.421875 -0.171875 C 2.316406 -0.285156 2.265625 -0.425781 2.265625 -0.59375 L 2.265625 -17.59375 C 2.265625 -17.78125 2.316406 -17.925781 2.421875 -18.03125 C 2.523438 -18.144531 2.671875 -18.203125 2.859375 -18.203125 L 9.203125 -18.203125 C 11.171875 -18.203125 12.722656 -17.742188 13.859375 -16.828125 C 15.003906 -15.910156 15.578125 -14.550781 15.578125 -12.75 C 15.578125 -11.414062 15.242188 -10.328125 14.578125 -9.484375 C 13.910156 -8.640625 13.003906 -8.054688 11.859375 -7.734375 L 15.875 -0.8125 C 15.925781 -0.707031 15.953125 -0.609375 15.953125 -0.515625 C 15.953125 -0.378906 15.894531 -0.257812 15.78125 -0.15625 C 15.664062 -0.0507812 15.539062 0 15.40625 0 L 14.15625 0 C 13.851562 0 13.632812 -0.078125 13.5 -0.234375 C 13.363281 -0.390625 13.242188 -0.546875 13.140625 -0.703125 L 9.359375 -7.3125 L 4.8125 -7.3125 L 4.8125 -0.59375 C 4.8125 -0.425781 4.753906 -0.285156 4.640625 -0.171875 C 4.523438 -0.0546875 4.375 0 4.1875 0 Z M 4.8125 -9.515625 L 9.109375 -9.515625 C 10.410156 -9.515625 11.378906 -9.785156 12.015625 -10.328125 C 12.660156 -10.878906 12.984375 -11.695312 12.984375 -12.78125 C 12.984375 -13.832031 12.664062 -14.632812 12.03125 -15.1875 C 11.394531 -15.75 10.421875 -16.03125 9.109375 -16.03125 L 4.8125 -16.03125 Z M 4.8125 -9.515625 "/></g></g></g><g fill="#0e2359" fill-opacity="1"><g transform="translate(184.679198, 238.84187)"><g><path d="M 2.859375 0 C 2.671875 0 2.523438 -0.0546875 2.421875 -0.171875 C 2.316406 -0.285156 2.265625 -0.425781 2.265625 -0.59375 L 2.265625 -17.609375 C 2.265625 -17.785156 2.316406 -17.925781 2.421875 -18.03125 C 2.523438 -18.144531 2.671875 -18.203125 2.859375 -18.203125 L 4.234375 -18.203125 C 4.429688 -18.203125 4.582031 -18.144531 4.6875 -18.03125 C 4.789062 -17.925781 4.84375 -17.785156 4.84375 -17.609375 L 4.84375 -0.59375 C 4.84375 -0.425781 4.789062 -0.285156 4.6875 -0.171875 C 4.582031 -0.0546875 4.429688 0 4.234375 0 Z M 2.859375 0 "/></g></g></g><g fill="#0e2359" fill-opacity="1"><g transform="translate(194.121912, 238.84187)"><g><path d="M 2.859375 0 C 2.671875 0 2.523438 -0.0546875 2.421875 -0.171875 C 2.316406 -0.285156 2.265625 -0.425781 2.265625 -0.59375 L 2.265625 -17.59375 C 2.265625 -17.78125 2.316406 -17.925781 2.421875 -18.03125 C 2.523438 -18.144531 2.671875 -18.203125 2.859375 -18.203125 L 13.46875 -18.203125 C 13.664062 -18.203125 13.816406 -18.144531 13.921875 -18.03125 C 14.035156 -17.925781 14.09375 -17.78125 14.09375 -17.59375 L 14.09375 -16.546875 C 14.09375 -16.359375 14.035156 -16.210938 13.921875 -16.109375 C 13.816406 -16.003906 13.664062 -15.953125 13.46875 -15.953125 L 4.78125 -15.953125 L 4.78125 -9.890625 L 12.953125 -9.890625 C 13.140625 -9.890625 13.289062 -9.832031 13.40625 -9.71875 C 13.519531 -9.601562 13.578125 -9.453125 13.578125 -9.265625 L 13.578125 -8.21875 C 13.578125 -8.039062 13.519531 -7.894531 13.40625 -7.78125 C 13.289062 -7.675781 13.140625 -7.625 12.953125 -7.625 L 4.78125 -7.625 L 4.78125 -0.59375 C 4.78125 -0.425781 4.722656 -0.285156 4.609375 -0.171875 C 4.503906 -0.0546875 4.351562 0 4.15625 0 Z M 2.859375 0 "/></g></g></g><g fill="#0e2359" fill-opacity="1"><g transform="translate(178.892386, 274.999645)"><g><path d="M 7.734375 0 C 7.554688 0 7.410156 -0.0546875 7.296875 -0.171875 C 7.179688 -0.285156 7.125 -0.425781 7.125 -0.59375 L 7.125 -6.734375 L 0.859375 -17.359375 C 0.835938 -17.410156 0.816406 -17.460938 0.796875 -17.515625 C 0.785156 -17.566406 0.78125 -17.625 0.78125 -17.6875 C 0.78125 -17.832031 0.832031 -17.953125 0.9375 -18.046875 C 1.039062 -18.148438 1.160156 -18.203125 1.296875 -18.203125 L 2.65625 -18.203125 C 2.8125 -18.203125 2.945312 -18.164062 3.0625 -18.09375 C 3.1875 -18.019531 3.273438 -17.910156 3.328125 -17.765625 L 8.40625 -9.34375 L 13.46875 -17.765625 C 13.5625 -17.910156 13.660156 -18.019531 13.765625 -18.09375 C 13.878906 -18.164062 14.015625 -18.203125 14.171875 -18.203125 L 15.5 -18.203125 C 15.65625 -18.203125 15.785156 -18.148438 15.890625 -18.046875 C 15.992188 -17.953125 16.046875 -17.832031 16.046875 -17.6875 C 16.046875 -17.625 16.035156 -17.566406 16.015625 -17.515625 C 16.003906 -17.460938 15.984375 -17.410156 15.953125 -17.359375 L 9.703125 -6.734375 L 9.703125 -0.59375 C 9.703125 -0.425781 9.644531 -0.285156 9.53125 -0.171875 C 9.414062 -0.0546875 9.265625 0 9.078125 0 Z M 7.734375 0 "/></g></g></g><g clip-path="url(#fb91b41d6c)"><path fill="#ee0b78" d="M 50.316406 55.316406 C 50.316406 55.316406 60.113281 86.878906 103.652344 110.820312 C 157.136719 140.203125 164.445312 161.351562 152.628906 229.917969 C 151.230469 241.890625 136.613281 280.449219 74.730469 299.726562 C 74.730469 299.726562 90.589844 274.539062 91.058594 253.242188 C 91.371094 234.738281 89.503906 205.664062 113.445312 192.292969 C 93.390625 186.234375 74.574219 183.894531 79.242188 157.3125 C 64.46875 152.957031 51.875 135.703125 60.738281 120.464844 C 60.734375 120.460938 32.902344 98.851562 50.316406 55.316406 Z M 50.316406 55.316406 " fill-opacity="1" fill-rule="evenodd"/></g><g clip-path="url(#80c2e0ee2d)"><path fill="#9b074e" d="M 152.628906 229.917969 C 151.230469 241.890625 136.613281 280.449219 74.730469 299.726562 C 74.730469 299.726562 90.589844 274.539062 91.058594 253.242188 C 91.371094 234.738281 89.503906 205.664062 113.445312 192.292969 C 129.925781 197.113281 147.1875 204.574219 152.628906 229.917969 Z M 152.628906 229.917969 " fill-opacity="1" fill-rule="evenodd"/></g></svg>